<svg width="406" height="108" viewBox="0 0 406 108" fill="none" xmlns="http://www.w3.org/2000/svg">
<g clip-path="url(#clip0_627_8240)">
<path d="M30.2734 44.2644C30.1368 43.937 30.0958 43.5413 29.9591 43.2274C29.8089 42.9136 29.5493 42.6543 29.3853 42.3405C29.2214 42.0267 29.0984 41.6992 28.9208 41.399C28.7432 41.0988 28.6886 40.7168 28.4973 40.4302C28.2924 40.13 27.8962 39.9936 27.6913 39.7207C27.4727 39.4341 27.3771 39.0794 27.1448 38.8201C26.9126 38.5472 26.653 38.3016 26.4208 38.0696C26.1612 37.8104 25.9836 37.4829 25.724 37.2646C25.4371 37.0326 25.1639 36.8006 24.877 36.6233C24.5627 36.4322 24.1529 36.4868 23.8387 36.3777C23.4698 36.2548 23.1146 36.173 22.7594 36.0775C22.3905 35.9683 22.0763 35.7227 21.7211 35.6272C21.3522 35.5317 21.0107 35.3952 20.6555 35.2997C20.3003 35.2042 19.9314 35.1496 19.5762 35.0268C19.2347 34.904 18.8111 34.9449 18.4696 34.7948C18.1417 34.6584 17.8685 34.3582 17.5269 34.1808C17.2674 34.0307 17.0078 33.7715 16.6799 33.5531C16.4067 33.3621 15.9695 33.3621 15.669 33.1438C15.3957 32.9391 15.2181 32.5707 14.9449 32.3524C14.6717 32.1341 14.3574 31.9567 14.0842 31.7384C13.7973 31.5064 13.5923 31.1926 13.3328 30.9742C13.0459 30.7423 12.677 30.6195 12.4311 30.4012C12.1306 30.1419 11.9256 29.8281 11.6934 29.637C11.2016 29.214 11.2699 29.3232 10.8327 29.0367C10.3545 28.7092 10.2862 28.6409 9.73976 28.7501C9.41188 28.8047 9.16597 29.0639 8.97471 29.5552C8.86541 29.8417 8.67415 30.1965 8.67415 30.6877C8.67415 31.0425 8.85171 31.3836 8.85171 31.7111C8.85171 32.0658 8.74244 32.407 8.74244 32.7344C8.74244 33.1029 8.61946 33.4303 8.59214 33.7578C8.56481 34.1262 8.64681 34.4674 8.61949 34.7812C8.59216 35.1496 8.41454 35.4771 8.38722 35.7773C8.34623 36.173 8.37357 36.5277 8.31893 36.8006C8.20963 37.4692 8.55118 37.4829 8.23696 37.8786C7.90908 38.2879 7.69046 37.8922 7.18498 38.2743C6.93907 38.4517 6.78882 38.8337 6.48826 39.0794C6.22868 39.284 5.85981 39.4068 5.58658 39.6524C5.327 39.8844 5.05376 40.13 4.80785 40.3756C4.54827 40.6349 4.43899 41.0033 4.2204 41.2762C3.97449 41.5627 3.71492 41.8084 3.53731 42.0813C3.33239 42.4224 3.07279 42.7226 3.00448 43.0228C2.94984 43.3502 2.93618 43.6914 2.84055 44.0325C2.74492 44.36 2.64931 44.6874 2.52636 45.0286C2.41706 45.356 2.41703 45.7381 2.28041 46.0519C2.1438 46.3794 1.84326 46.6387 1.70664 46.9389C1.55636 47.28 1.54269 47.662 1.39241 47.9486C1.18748 48.3443 0.968888 48.6445 0.83227 48.8219C0.627344 49.0811 0.408764 49.3813 0.285809 49.7361C0.176514 50.0636 0.0672171 50.432 0.0262319 50.7731C-0.0147534 51.1415 0.176533 51.5236 0.176533 51.8374C0.176533 52.0694 0.217521 52.3832 0.436109 52.7516C0.586389 53.0109 0.668341 53.3656 0.886929 53.6522C1.07819 53.9251 1.44707 54.0615 1.66566 54.3208C1.89791 54.5937 2.10284 54.8666 2.30776 55.0713C2.63565 55.4124 2.88156 55.6853 3.03183 55.7399C3.15479 55.7808 3.55096 55.9036 4.12476 56.0128C4.43898 56.0674 4.83518 56.0128 5.24503 56.081C5.58658 56.1356 5.95543 56.2174 6.33796 56.2857C6.69316 56.3539 7.06205 56.4631 7.43092 56.5313C7.79979 56.5995 8.19595 56.5859 8.55115 56.6541C8.93368 56.7223 9.30257 56.8042 9.64412 56.8724C10.0403 56.9543 10.3819 57.1862 10.7097 57.2681C11.2152 57.3909 11.5704 57.5001 11.748 57.6092C11.9393 57.7184 12.0759 57.9913 12.2535 58.4279C12.3628 58.7145 12.595 59.001 12.7043 59.3694C12.8 59.6833 12.9093 60.0108 12.9912 60.3655C13.0732 60.693 13.1689 61.0341 13.2372 61.3753C13.3055 61.7164 13.3191 62.0711 13.3738 62.4123C13.4284 62.767 13.4147 63.1218 13.4694 63.4493C13.524 63.8177 13.5923 64.1588 13.6333 64.4863C13.6743 64.8957 13.647 65.2504 13.6607 65.5233C13.6743 65.8508 13.7973 66.1919 13.8519 66.5467C13.9066 66.8742 13.8519 67.2562 13.9476 67.5974C14.0295 67.9248 14.2481 68.2387 14.3574 68.5662C14.4667 68.8936 14.5077 69.2484 14.617 69.5895C14.7399 69.917 14.8629 70.2445 14.9995 70.572C15.1361 70.8994 15.3137 71.1996 15.4504 71.5271C15.6006 71.8546 15.7919 72.1548 15.9422 72.455C16.0924 72.7825 16.1744 73.1372 16.3247 73.4374C16.4886 73.7785 16.7346 74.0378 16.8712 74.338C17.0488 74.6927 17.1991 75.0066 17.322 75.2795C17.5406 75.7571 17.6909 76.1255 17.6909 76.2756C17.6909 76.3711 17.363 76.6849 17.0897 77.2307C16.9531 77.5036 16.8849 77.8857 16.6936 78.2677C16.5296 78.5679 16.3247 78.8681 16.1335 79.2229C15.9695 79.5367 15.7919 79.8506 15.6006 80.1917C15.423 80.5055 15.4094 80.9149 15.2181 81.2423C15.0405 81.5562 14.7263 81.8018 14.535 82.1293C14.3574 82.4431 14.2891 82.8252 14.0979 83.1526C13.9203 83.4665 13.688 83.753 13.5104 84.0805C13.3328 84.3943 13.1142 84.7082 12.9366 85.022C12.7453 85.3358 12.636 85.7042 12.4448 86.0181C12.2535 86.3456 12.0896 86.673 11.8983 86.9869C11.707 87.3144 11.4202 87.56 11.2289 87.8738C11.0376 88.2013 10.9146 88.556 10.737 88.8699C10.5458 89.1974 10.1906 89.402 9.99934 89.7159C9.79441 90.0433 9.57581 90.3299 9.38454 90.6301C9.17962 90.9576 9.1796 91.3942 8.98834 91.6944C8.76975 92.0219 8.40087 92.2129 8.20961 92.4994C7.97736 92.8406 7.82712 93.1817 7.64951 93.4409C7.33529 93.8776 7.11671 94.1778 6.96643 94.2869C6.73418 94.4507 6.40629 94.5462 6.02376 94.6826C5.7232 94.7918 5.36797 94.7918 5.01276 94.8873C4.68488 94.9692 4.39801 95.2694 4.05647 95.3512C3.71492 95.4331 3.35972 95.474 3.03183 95.5559C2.67663 95.6514 2.32142 95.6514 2.0072 95.7606C1.63834 95.8698 1.39243 96.1972 1.1192 96.3337C0.723006 96.5111 0.299489 96.5384 0.176533 96.7703C0.0399153 97.0296 0.0535454 97.5208 0.272133 97.9438C0.422413 98.244 0.72297 98.5442 0.996205 98.858C1.22845 99.1309 1.5017 99.4174 1.81592 99.6767C2.10282 99.9087 2.48537 100.045 2.82692 100.236C3.1548 100.427 3.48267 100.645 3.83787 100.782C4.19308 100.905 4.5756 101.068 4.94447 101.109C5.31334 101.164 5.7232 101.109 6.10573 101.055C6.40629 101.014 6.73417 100.809 7.13036 100.659C7.44458 100.536 7.77244 100.414 8.12764 100.222C8.4282 100.072 8.76977 99.9223 9.09766 99.7313C9.39822 99.5539 9.63046 99.2537 9.94468 99.049C10.2452 98.858 10.6277 98.7898 10.942 98.5851C11.2425 98.3804 11.4885 98.1075 11.789 97.8892C12.0759 97.6845 12.4858 97.6163 12.7727 97.398C13.0596 97.1797 13.3328 96.9341 13.6197 96.7157C13.9066 96.4974 14.1662 96.2245 14.4394 95.9926C14.7263 95.7606 14.9859 95.5013 15.2728 95.283C15.5597 95.0511 15.9149 94.901 16.1881 94.6826C16.4887 94.437 16.6663 94.0959 16.9395 93.8776C17.24 93.632 17.6089 93.5092 17.8685 93.2909C18.1827 93.0316 18.4696 92.7996 18.7155 92.595C19.0844 92.2948 19.2347 91.8718 19.4259 91.7353C19.6035 91.5989 19.9997 91.5034 20.3276 91.1759C20.5462 90.9576 20.6692 90.5755 20.9287 90.289C21.1473 90.0433 21.3522 89.7568 21.5982 89.4839C21.8304 89.2383 22.2676 89.1564 22.5135 88.8835C22.7457 88.6243 22.855 88.2559 23.101 87.983C23.3332 87.7237 23.5245 87.4235 23.7704 87.1643C24.0026 86.8914 24.1939 86.5912 24.4261 86.3183C24.6584 86.0454 25.0136 85.8816 25.2458 85.6087C25.4781 85.3358 25.7787 85.1175 25.9972 84.8446C26.2295 84.5717 26.2978 84.1624 26.5164 83.9031C26.7623 83.6166 27.0219 83.371 27.2405 83.1117C27.4864 82.8252 27.8689 82.6751 28.0738 82.4158C28.3334 82.102 28.47 81.7608 28.6613 81.5289C29.0848 81.024 28.8252 80.9421 29.2624 80.6283C29.7542 80.2735 29.7815 80.3964 30.41 80.1644C30.7788 80.0279 31.216 79.9324 31.5986 79.8506C32.1177 79.7277 32.5275 79.7823 32.7188 79.9734C32.8554 80.1098 33.156 80.3554 33.4292 80.7511C33.6068 81.0104 33.6888 81.3924 33.9074 81.7063C34.0987 81.9928 34.4129 82.2248 34.6041 82.525C34.7954 82.8252 35.0686 83.0844 35.2462 83.3846C35.4375 83.6984 35.5605 84.0532 35.7244 84.3534C35.9293 84.7082 36.0932 85.022 36.2162 85.2949C36.3118 85.4996 36.5168 85.8271 36.6807 86.2773C36.7764 86.5775 36.7354 86.9732 36.8583 87.3416C36.9539 87.6691 37.2545 87.9557 37.3638 88.3104C37.4595 88.6379 37.4321 89.0336 37.5278 89.3884C37.6234 89.7295 37.7873 90.057 37.8966 90.4118C37.9922 90.7529 38.0606 91.1213 38.1562 91.4624C38.2518 91.8172 38.2518 92.1856 38.3475 92.5267C38.4431 92.8815 38.4567 93.2636 38.5387 93.591C38.6344 93.9594 38.9486 94.2596 39.0442 94.5735C39.1535 94.9692 39.2218 95.324 39.3038 95.6241C39.4677 96.2655 39.5224 96.1426 39.4677 96.6612C39.3994 97.207 39.2765 97.0705 38.9759 97.6436C38.812 97.9438 38.771 98.3668 38.5524 98.6943C38.3475 99.0081 38.0605 99.2946 37.842 99.5675C37.5824 99.895 37.3228 100.222 37.0633 100.386C36.8037 100.55 36.4485 100.727 36.1616 101.028C35.902 101.3 35.6424 101.601 35.4921 101.914C35.3009 102.283 35.3419 102.651 35.4921 102.965C35.6151 103.224 35.8337 103.443 36.3118 103.593C36.5987 103.675 36.954 103.661 37.4048 103.688C37.7737 103.702 38.1289 103.702 38.4841 103.702C38.8529 103.702 39.2082 103.797 39.577 103.784C39.9459 103.77 40.3011 103.716 40.6563 103.675C41.0251 103.634 41.4077 103.688 41.7492 103.62C42.1318 103.552 42.5006 103.511 42.8285 103.402C43.1974 103.293 43.5116 103.061 43.8122 102.911C44.1674 102.72 44.4133 102.474 44.6182 102.228C44.8641 101.942 45.0963 101.669 45.1373 101.3C45.1647 101 45.2056 100.659 45.233 100.263C45.2603 99.936 45.2466 99.5812 45.274 99.2264C45.2876 98.8853 45.3423 98.5305 45.3559 98.1894C45.3696 97.8346 45.4106 97.4799 45.4243 97.1387C45.4379 96.7703 45.3969 96.4155 45.4243 96.0881C45.4379 95.706 45.5472 95.3512 45.5609 95.0511C45.5882 94.4234 45.6018 94.5325 45.6155 94.014C45.6155 93.4819 45.5062 93.4819 45.5062 92.9497C45.5062 92.4176 45.4516 92.4176 45.4516 91.8854C45.4516 91.3533 45.4242 91.3533 45.4379 90.8211C45.4379 90.289 45.4925 90.289 45.4925 89.7568C45.4925 89.2246 45.5062 89.2246 45.5062 88.6925C45.5062 88.1603 45.4789 88.1603 45.4789 87.6282C45.4789 87.096 45.4379 87.096 45.4379 86.5639C45.4379 86.0317 45.5472 86.0317 45.5609 85.4996C45.5609 84.9674 45.5609 84.9674 45.5609 84.4353C45.5609 83.9031 45.6838 83.9031 45.6838 83.371C45.6838 82.8388 45.4652 82.8388 45.4789 82.3066C45.4789 81.7745 45.7111 81.7745 45.7111 81.2423C45.7111 80.7102 45.5882 80.7102 45.5882 80.1644C45.5882 79.6322 45.7384 79.6322 45.7384 79.0864C45.7384 78.5543 45.5062 78.5543 45.6975 78.0494C45.8887 77.5446 45.9844 77.9675 46.6675 78.0085C46.968 78.0358 47.3232 78.1586 47.7331 78.1859C48.061 78.2132 48.4435 78.0494 48.826 78.0767C49.1676 78.104 49.5228 78.1995 49.9053 78.2268C50.2469 78.2541 50.6021 78.3769 50.9846 78.4042C51.3398 78.4315 51.7087 78.3496 52.0775 78.3769C52.4327 78.4042 52.7879 78.4588 53.1568 78.4861C53.512 78.5133 53.8672 78.5816 54.2361 78.6089C54.5913 78.6361 54.9465 78.6771 55.3154 78.7044C55.6706 78.7317 56.0394 78.7453 56.3946 78.7726C56.7635 78.7999 57.1187 78.8272 57.4876 78.8545C57.8564 78.8818 58.2116 78.9227 58.5805 78.95C58.9494 78.9773 59.3046 79.0591 59.6598 79.0728C60.0287 79.1001 60.3975 78.9636 60.7527 78.9773C61.1216 79.0046 61.4905 78.9363 61.8457 78.9636C62.2145 78.9909 62.5698 79.0864 62.925 79.1137C63.3075 79.141 63.6627 79.2229 64.0042 79.2365C64.3868 79.2638 64.7556 79.1956 65.0972 79.2092C65.507 79.2365 65.8622 79.3593 66.1628 79.3866C66.7502 79.4276 67.1191 79.3866 67.2284 79.3866C67.365 79.3866 67.7612 79.5231 68.3077 79.4821C68.6219 79.4548 68.9635 79.332 69.3733 79.3048C69.7012 79.2775 70.0564 79.1819 70.4252 79.141C70.7668 79.1137 71.1357 79.2229 71.5045 79.1956C71.8461 79.1683 72.2013 79.0046 72.5565 78.9773C72.9117 78.95 73.2806 79.0046 73.6358 78.9773C73.991 78.95 74.3462 78.7862 74.7014 78.759C75.0703 78.7317 75.4255 78.6907 75.767 78.6634C76.1359 78.6362 76.5047 78.6771 76.8463 78.6498C77.2288 78.6225 77.5977 78.6498 77.9256 78.6089C78.3354 78.5816 78.7043 78.6634 79.0048 78.6361C79.6606 78.5816 79.5786 78.1995 80.0841 78.3769C80.6169 78.5679 80.453 78.6771 80.9585 79.141C81.2044 79.3593 81.382 79.7414 81.6962 80.0279C81.9558 80.2735 82.2837 80.4919 82.5705 80.7648C82.8438 81.024 83.1444 81.256 83.4176 81.5289C83.6908 81.7881 83.9367 82.102 84.21 82.3612C84.4969 82.6341 84.9067 82.7706 85.1663 83.0298C85.4669 83.3164 85.6581 83.6711 85.904 83.9168C86.2319 84.2579 86.5051 84.5444 86.6827 84.7491C86.9287 85.0356 87.0379 85.3904 87.0789 85.7861C87.1199 86.1136 87.0926 86.4957 87.0243 86.8914C86.9696 87.2325 86.833 87.5736 86.7101 87.9557C86.6008 88.2968 86.4642 88.6379 86.3139 88.9927C86.1909 89.3338 86.1089 89.7022 85.9723 90.057C85.8357 90.3981 85.6035 90.6983 85.4532 91.0531C85.3166 91.3942 85.1253 91.7217 84.975 92.0765C84.8384 92.4312 84.9204 92.8542 84.7564 93.1408C84.5788 93.4819 84.2783 93.7275 84.087 93.9867C83.8548 94.2869 83.6362 94.5735 83.3903 94.7782C83.1034 95.0238 82.8165 95.2284 82.5159 95.3785C82.188 95.5423 81.8328 95.5968 81.5049 95.6924C81.1497 95.8015 80.8492 96.0471 80.5076 96.1154C80.1524 96.1972 79.7836 96.1563 79.4557 96.2655C79.1141 96.3746 78.7999 96.5111 78.513 96.7294C78.2534 96.9204 77.9939 97.1524 77.7889 97.4935C77.6387 97.7664 77.6523 98.1348 77.5567 98.5305C77.4474 98.9262 77.2288 99.281 77.2561 99.6358C77.2971 100.018 77.5157 100.332 77.8163 100.618C78.0485 100.85 78.2944 101.205 78.7453 101.341C79.0595 101.437 79.483 101.341 79.9202 101.382C80.2617 101.41 80.6579 101.423 81.0814 101.41C81.4503 101.396 81.7782 101.178 82.1061 101.137C82.4749 101.096 82.8438 101.205 83.1717 101.137C83.5405 101.055 83.8684 100.946 84.1826 100.85C84.5379 100.727 84.8247 100.509 85.1116 100.373C85.4532 100.209 85.8494 100.195 86.109 100.031C86.4505 99.8131 86.6964 99.5266 86.9013 99.3219C87.3658 98.8716 87.3112 98.9944 87.6117 98.5715C87.926 98.1212 87.8986 98.0939 88.2402 97.6572C88.5817 97.2206 88.5407 97.1933 88.8823 96.7567C89.2238 96.32 89.1555 96.2655 89.4971 95.8288C89.8386 95.3922 89.8659 95.4058 90.2075 94.9692C90.549 94.5325 90.631 94.6008 90.9725 94.1505C91.3141 93.7138 91.3414 93.7275 91.6829 93.2909C92.0245 92.8542 91.9015 92.7451 92.2431 92.3084C92.5846 91.8718 92.571 91.8581 92.9125 91.4215C93.254 90.9712 93.2677 90.9848 93.6092 90.5346C93.9508 90.0843 94.1147 90.2071 94.4426 89.7568C94.7978 89.2929 94.6612 89.3338 95.0301 88.7471C95.2077 88.4605 95.3716 88.0921 95.5902 87.7237C95.7815 87.3962 95.9317 87.0415 96.123 86.6867C96.3006 86.3456 96.5329 86.0181 96.6831 85.6633C96.8471 85.2949 97.052 84.9401 97.175 84.5854C97.3116 84.1897 97.3662 83.7803 97.4072 83.4255C97.4619 82.9753 97.4755 82.525 97.3252 82.2248C97.1886 81.9382 97.0384 81.6517 96.97 81.2969C96.9154 80.9694 96.9291 80.642 96.9154 80.2872C96.9154 79.9461 96.8608 79.6049 96.8881 79.2638C96.9154 78.909 96.9154 78.5679 96.9564 78.2404C96.9974 77.872 96.9974 77.5173 97.052 77.2171C97.1613 76.6167 96.7788 76.3029 97.2569 76.1118C97.8034 75.9072 97.7214 76.412 98.3499 76.7259C98.6504 76.8759 98.992 77.067 99.3745 77.258C99.7024 77.4217 100.003 77.681 100.358 77.872C100.7 78.0494 101.123 78.0903 101.465 78.2814C101.806 78.4724 102.066 78.8272 102.38 79.0182C102.735 79.2365 103.118 79.373 103.391 79.5777C103.651 79.755 104.019 79.8642 104.32 80.0962C104.58 80.3008 104.675 80.7375 104.949 80.9694C105.208 81.2014 105.495 81.3924 105.755 81.638C106 81.8837 106.356 82.0337 106.602 82.2794C106.847 82.5386 106.957 82.907 107.175 83.1799C107.408 83.4528 107.804 83.5893 108.009 83.8622C108.227 84.1624 108.255 84.5717 108.419 84.8583C108.61 85.1857 108.787 85.4859 108.897 85.7725C109.02 86.1136 109.17 86.4547 109.307 86.8231C109.43 87.1643 109.512 87.5463 109.648 87.9011C109.785 88.2422 109.894 88.6106 110.044 88.9654C110.181 89.3065 110.345 89.6613 110.495 90.0024C110.645 90.3435 110.946 90.6301 111.11 90.9712C111.274 91.3123 111.383 91.6807 111.561 92.0082C111.738 92.3493 111.93 92.6768 112.121 92.9907C112.326 93.3181 112.585 93.6047 112.804 93.9049C113.023 94.2187 113.241 94.5325 113.473 94.8054C113.733 95.1056 113.924 95.4331 114.198 95.6787C114.416 95.8834 114.771 96.0062 115.058 96.2518C115.304 96.4701 115.55 96.7157 115.823 96.9341C116.083 97.1524 116.288 97.4526 116.561 97.6572C116.834 97.8619 117.176 97.9984 117.449 98.1757C117.75 98.3668 117.995 98.6397 118.296 98.7761C118.638 98.9399 118.993 98.9535 119.293 99.0081C119.676 99.0763 120.045 99.1445 120.304 98.9535C120.523 98.7898 120.578 98.435 120.673 98.012C120.755 97.6163 120.919 97.2479 120.905 96.8795C120.905 96.4838 120.864 96.0881 120.769 95.7197C120.673 95.3376 120.523 94.9555 120.373 94.6144C120.209 94.2596 119.894 93.9867 119.69 93.6729C119.471 93.3318 119.334 92.9361 119.116 92.6632C118.829 92.3084 118.419 92.1583 118.214 91.94C118.023 91.7353 117.927 91.326 117.709 90.9166C117.545 90.6164 117.435 90.2617 117.271 89.8932C117.121 89.5658 116.916 89.2519 116.766 88.8972C116.629 88.556 116.52 88.2013 116.383 87.8329C116.247 87.4781 115.974 87.1915 115.851 86.8368C115.728 86.482 115.577 86.1272 115.454 85.7861C115.331 85.4177 115.359 85.0084 115.249 84.6672C115.127 84.2852 114.949 83.944 114.84 83.6166C114.717 83.2209 114.635 82.8388 114.539 82.525C114.334 81.87 114.143 82.0337 114.075 81.4743C114.02 80.9558 114.143 81.0513 114.157 80.4236C114.157 80.1234 114.157 79.7823 114.157 79.3866C114.157 79.0591 114.102 78.718 114.088 78.3632C114.088 78.0221 114.088 77.681 114.061 77.3262C114.034 76.9851 114.198 76.6167 114.157 76.2756C114.116 75.9208 113.979 75.5933 113.911 75.2522C113.842 74.8974 113.665 74.5836 113.555 74.2834C113.432 73.9286 113.391 73.5875 113.228 73.3146C113.064 73.0417 112.886 72.7415 112.654 72.4277C112.462 72.1548 112.203 71.9092 111.984 71.6226C111.779 71.3497 111.574 71.0632 111.356 70.7766C111.137 70.5037 110.96 70.1899 110.741 69.917C110.523 69.6305 110.318 69.3439 110.113 69.071C109.894 68.7845 109.593 68.5662 109.402 68.2933C109.184 67.9794 109.143 67.5837 108.979 67.3245C108.733 66.9424 108.419 66.6968 108.378 66.4648C108.337 66.2329 108.173 65.919 108.063 65.496C107.995 65.1958 108.009 64.8411 107.927 64.4727C107.845 64.1588 107.927 63.7904 107.845 63.4356C107.776 63.1082 107.544 62.808 107.476 62.4668C107.408 62.1394 107.326 61.7982 107.271 61.4571C107.216 61.116 107.244 60.7612 107.203 60.4337C107.162 60.079 107.039 59.7515 107.025 59.424C107.011 59.0692 107.011 58.7145 107.025 58.387C107.052 58.0732 107.134 57.7048 107.08 57.2954C107.039 56.9679 106.97 56.5995 106.902 56.2175C106.834 55.8763 106.602 55.5488 106.52 55.1804C106.438 54.8393 106.52 54.4436 106.41 54.0752C106.315 53.7204 106.164 53.3793 106.069 53.0382C105.959 52.6834 105.918 52.315 105.809 51.9739C105.7 51.6191 105.604 51.2643 105.495 50.9232C105.386 50.5548 105.126 50.2546 105.03 49.9271C104.908 49.5451 104.908 49.163 104.826 48.8492C104.689 48.3579 104.498 48.0032 104.498 47.7985C104.498 47.5392 104.757 47.2254 104.921 46.7751C105.03 46.4749 104.921 46.0383 105.099 45.6562C105.235 45.356 105.536 45.0831 105.714 44.7147C105.864 44.4145 106.014 44.0734 106.192 43.7323C106.356 43.4321 106.451 43.0637 106.643 42.7226C106.82 42.4224 107.039 42.1222 107.23 41.7811C107.408 41.4809 107.613 41.167 107.804 40.8396C107.981 40.5394 108.268 40.2665 108.46 39.939C108.651 39.6252 108.719 39.2431 108.91 38.9156C109.102 38.6018 109.293 38.3016 109.498 37.9741C109.675 37.6739 109.949 37.4283 110.14 37.1008C110.318 36.8006 110.454 36.4732 110.632 36.1457C110.796 35.8455 111.055 35.559 111.219 35.2451C111.383 34.9313 111.479 34.5765 111.643 34.249C111.807 33.9352 112.039 33.6487 112.203 33.3212C112.353 33.0073 112.435 32.6389 112.585 32.3114C112.736 31.984 112.831 31.6292 112.968 31.3017C113.118 30.9742 113.432 30.7286 113.583 30.3875C113.719 30.06 113.706 29.6507 113.842 29.3232C113.979 28.9957 113.993 28.6 114.116 28.2725C114.252 27.9314 114.498 27.6449 114.621 27.3037C114.744 26.9626 114.826 26.6078 114.949 26.2667C115.072 25.9256 115.331 25.6391 115.441 25.2979C115.564 24.9568 115.769 24.643 115.878 24.3018C115.987 23.9471 116.028 23.5923 116.124 23.2512C116.233 22.8964 116.288 22.5416 116.383 22.2005C116.479 21.8458 116.547 21.491 116.629 21.1499C116.711 20.7814 116.67 20.413 116.739 20.0719C116.807 19.7035 116.971 19.3624 117.012 19.0212C117.066 18.6528 117.066 18.2844 117.08 17.9433C117.094 17.5612 117.107 17.2065 117.08 16.879C117.053 16.5379 116.998 16.1831 116.971 15.8283C116.944 15.4735 116.998 15.1188 116.971 14.764C116.93 14.4092 116.916 14.0545 116.875 13.6997C116.834 13.3449 116.602 13.0311 116.547 12.6763C116.493 12.3216 116.37 11.9941 116.301 11.653C116.233 11.3118 116.383 10.9161 116.301 10.575C116.219 10.2339 116.083 9.90639 115.974 9.56527C115.864 9.22415 115.728 8.89667 115.605 8.56919C115.482 8.24171 115.222 7.96881 115.072 7.64133C114.922 7.32749 114.758 7.0273 114.58 6.71347C114.402 6.41328 114.402 5.99029 114.211 5.70374C114.02 5.4172 113.788 5.1443 113.555 4.85775C113.337 4.58485 113.159 4.25737 112.9 4.01176C112.654 3.76615 112.353 3.56148 112.08 3.31587C111.82 3.08391 111.547 2.85194 111.26 2.63362C110.987 2.42895 110.591 2.36072 110.29 2.16969C109.976 1.96502 109.771 1.5966 109.471 1.43286C109.143 1.25548 108.801 1.13267 108.487 0.982579C108.145 0.832484 107.804 0.68239 107.49 0.57323C107.134 0.450425 106.738 0.51865 106.41 0.43678C106.041 0.341265 105.727 0.122945 105.386 0.0820105C105.003 0.0274306 104.648 -0.0271493 104.306 -0.0135043C103.924 -0.0135043 103.569 0.13659 103.241 0.204815C102.858 0.286685 102.489 0.341265 102.203 0.477715C101.834 0.6551 101.506 0.859774 101.314 1.10538C101.041 1.41922 101.028 1.80128 101.11 2.12876C101.192 2.44259 101.396 2.70185 101.724 2.9611C101.984 3.16578 102.298 3.31587 102.653 3.5069C102.954 3.67064 103.295 3.79344 103.637 3.95718C103.951 4.10728 104.279 4.27102 104.607 4.43476C104.935 4.5985 105.194 4.89869 105.495 5.07607C105.823 5.2671 106.137 5.4172 106.424 5.63552C106.725 5.86748 106.943 6.14038 107.175 6.39964C107.408 6.68618 107.681 6.94543 107.913 7.24562C108.132 7.54581 108.391 7.81871 108.596 8.14619C108.787 8.46003 109.02 8.76022 109.197 9.10134C109.375 9.42882 109.279 9.89275 109.43 10.2339C109.58 10.575 110.031 10.7933 110.167 11.1481C110.29 11.5029 110.372 11.8713 110.482 12.2397C110.591 12.5945 110.468 13.0174 110.55 13.3859C110.632 13.7543 110.768 14.109 110.823 14.4775C110.878 14.8459 111.001 15.2143 111.042 15.5827C111.069 15.9511 111.055 16.3332 111.055 16.7152C111.055 17.0837 110.973 17.4657 110.946 17.8341C110.919 18.2025 110.864 18.571 110.823 18.953C110.768 19.3214 110.755 19.7035 110.673 20.0719C110.591 20.4403 110.495 20.7951 110.386 21.1635C110.277 21.5183 110.113 21.8594 109.962 22.2142C109.839 22.528 109.689 22.8555 109.539 23.2102C109.402 23.5241 109.266 23.8652 109.115 24.2063C108.965 24.5202 108.965 24.9159 108.801 25.257C108.651 25.5708 108.432 25.871 108.268 26.2121C108.104 26.526 107.79 26.7716 107.626 27.0991C107.462 27.4129 107.353 27.7677 107.175 28.0952C107.011 28.409 106.97 28.8047 106.807 29.1322C106.629 29.446 106.438 29.7598 106.26 30.0737C106.082 30.3875 105.973 30.7423 105.796 31.0561C105.618 31.3699 105.331 31.6292 105.153 31.943C104.976 32.2569 104.757 32.5571 104.58 32.8845C104.388 33.1984 104.252 33.5395 104.061 33.8533C103.869 34.1672 103.582 34.4264 103.391 34.7266C103.2 35.0404 103.145 35.4361 102.968 35.75C102.776 36.0638 102.503 36.3231 102.312 36.6369C102.107 36.9507 101.888 37.2373 101.697 37.5375C101.492 37.8513 101.287 38.1515 101.082 38.438C100.877 38.7519 100.645 39.0384 100.44 39.325C100.222 39.6388 100.153 40.0482 99.9483 40.321C99.716 40.6349 99.3882 40.8532 99.1832 41.1125C98.9237 41.4399 98.6778 41.6992 98.4728 41.9312C98.0903 42.3269 97.8581 42.6816 97.6668 42.6816C97.4209 42.6816 97.0384 42.5725 96.5465 42.5042C96.2187 42.4497 95.8634 42.3132 95.4536 42.245C95.112 42.1904 94.7432 42.0676 94.3606 41.9994C94.0054 41.9312 93.6502 41.822 93.2677 41.7538C92.9125 41.6855 92.5163 41.7128 92.1475 41.631C91.7786 41.5627 91.4097 41.5218 91.0409 41.4536C90.672 41.3717 90.2758 41.3854 89.9206 41.3171C89.5517 41.2353 89.1828 41.1125 88.8276 41.0442C88.4451 40.9624 88.0762 40.9078 87.721 40.8259C87.3385 40.744 86.9833 40.594 86.6281 40.5257C86.2319 40.4439 85.8494 40.3893 85.5215 40.321C85.1799 40.2528 84.8111 40.2392 84.4285 40.1846C84.0733 40.13 83.7181 40.0482 83.3493 40.0072C82.9941 39.9663 82.6389 39.8708 82.27 39.8298C81.9148 39.7889 81.5459 39.8162 81.1771 39.7889C80.8219 39.7616 80.453 39.6797 80.0841 39.6661C79.7289 39.6388 79.36 39.6934 78.9912 39.6661C78.636 39.6524 78.2671 39.5706 77.8982 39.5706C77.543 39.5706 77.1742 39.6934 76.7916 39.6797C76.4228 39.6797 76.0676 39.4751 75.6987 39.4751C75.3435 39.4751 74.9746 39.5842 74.6057 39.5979C74.2505 39.5979 73.8817 39.5433 73.5128 39.5569C73.1576 39.5569 72.7887 39.6115 72.4199 39.6252C72.051 39.6388 71.6958 39.6252 71.3269 39.6252C70.9581 39.6388 70.6029 39.7753 70.234 39.8025C69.8651 39.8298 69.5099 39.8571 69.141 39.8844C68.7722 39.9117 68.417 40.0618 68.0618 40.1027C67.6929 40.13 67.324 40.0754 66.9552 40.1027C66.5863 40.1437 66.2174 40.13 65.8622 40.171C65.4934 40.2119 65.1245 40.171 64.7556 40.1982C64.3868 40.2392 64.0452 40.4302 63.6763 40.4711C63.3075 40.5121 62.9386 40.4711 62.5697 40.5121C62.2009 40.5667 61.8593 40.7713 61.5041 40.8259C61.1353 40.8805 60.7664 40.8941 60.4112 40.9487C60.0423 41.0033 59.6871 41.0852 59.3319 41.1534C58.963 41.2216 58.6078 41.2898 58.2526 41.3581C57.8974 41.4263 57.5012 41.3308 57.146 41.4126C56.7908 41.4809 56.4356 41.631 56.0667 41.7128C55.7115 41.7947 55.37 41.9721 55.0148 42.0676C54.6596 42.1631 54.2498 42.054 53.8809 42.1495C53.5257 42.245 53.1978 42.4224 52.8289 42.5315C52.4737 42.6407 52.1185 42.7499 51.7633 42.8727C51.4081 42.9818 51.0666 43.1183 50.7113 43.2274C50.3561 43.3366 50.0419 43.5686 49.6867 43.6777C49.3315 43.8005 48.949 43.8278 48.5938 43.937C48.2386 44.0598 47.897 44.2235 47.5555 44.3327C47.2003 44.4418 46.8724 44.6329 46.5172 44.742C46.162 44.8512 45.8068 44.974 45.4516 45.0695C45.0964 45.1787 44.7138 45.1923 44.3586 45.2878C44.0034 45.3833 43.6072 45.3424 43.252 45.4243C42.8832 45.5198 42.5553 45.6972 42.2001 45.779C41.8312 45.8609 41.5033 46.1065 41.1481 46.1884C40.7793 46.2566 40.3967 46.2703 40.0415 46.3248C39.6727 46.3794 39.2901 46.4067 38.9349 46.434C38.5661 46.4749 38.1835 46.5295 37.8283 46.5432C37.4595 46.5432 37.0769 46.3931 36.7217 46.3794C36.3529 46.3658 35.9703 46.4476 35.6015 46.4067C35.2326 46.3521 34.8501 46.3658 34.4949 46.2703C34.1396 46.1884 33.7844 46.0383 33.4292 45.9155C33.0877 45.7927 32.7188 45.6835 32.3773 45.5198C32.0494 45.356 31.7078 45.1787 31.3936 44.9603C31.093 44.7557 30.7515 44.5101 30.4646 44.2644H30.2734Z" fill="#231815"/>
<path d="M138.421 105.925C138.817 105.871 139.172 105.803 139.486 105.707C139.869 105.584 140.197 105.434 140.47 105.257C140.798 105.052 141.112 104.847 141.317 104.574C141.535 104.274 141.563 103.906 141.658 103.551C141.74 103.21 141.918 102.869 141.918 102.487C141.918 102.132 141.822 101.777 141.768 101.409C141.699 101.027 141.686 100.645 141.576 100.304C141.453 99.9352 141.221 99.6213 141.016 99.3212C140.811 99.0073 140.511 98.8163 140.21 98.5843C139.923 98.3796 139.65 98.1477 139.268 98.0385C138.94 97.943 138.585 97.8748 138.175 97.8611C137.833 97.8475 137.478 97.9157 137.068 97.9703C136.699 98.0112 136.344 98.0658 135.989 98.1613C135.62 98.2568 135.237 98.2705 134.91 98.4069C134.568 98.557 134.281 98.8299 133.994 99.021C133.68 99.2256 133.366 99.4303 133.106 99.6759C132.833 99.9488 132.546 100.208 132.368 100.508C132.177 100.836 132.15 101.218 132.068 101.573C132 101.927 132.054 102.268 132.109 102.637C132.177 103.005 132.204 103.374 132.396 103.701C132.587 104.015 132.778 104.356 133.079 104.615C133.352 104.861 133.721 104.984 134.062 105.175C134.377 105.352 134.718 105.489 135.087 105.611C135.429 105.721 135.784 105.898 136.153 105.966C136.522 106.021 136.89 106.034 137.287 106.034C137.656 106.034 138.024 105.994 138.407 105.939L138.421 105.925Z" fill="#231815"/>
<path d="M130.798 100.398C131.208 100.344 131.563 100.207 131.823 100.003C132.151 99.7435 132.315 99.4023 132.246 99.0476C132.192 98.6928 131.919 98.4199 131.522 98.2562C131.208 98.1197 130.812 98.0106 130.402 98.0651C129.992 98.1197 129.664 98.3244 129.405 98.5291C129.077 98.7883 128.886 99.1158 128.94 99.4706C128.995 99.8253 129.282 100.112 129.678 100.289C129.992 100.426 130.388 100.467 130.798 100.412V100.398Z" fill="#231815"/>
<path d="M129.637 104.342C130.046 104.287 130.415 104.165 130.675 103.96C131.003 103.701 131.153 103.346 131.098 102.991C131.044 102.636 130.77 102.336 130.374 102.172C130.06 102.036 129.664 102.022 129.254 102.063C128.844 102.118 128.489 102.241 128.229 102.445C127.902 102.705 127.751 103.046 127.806 103.4C127.861 103.755 128.134 104.042 128.53 104.206C128.844 104.342 129.24 104.383 129.65 104.328L129.637 104.342Z" fill="#231815"/>
<path d="M131.932 107.96C132.342 107.905 132.684 107.741 132.943 107.523C133.271 107.264 133.435 106.923 133.38 106.568C133.326 106.213 133.039 105.954 132.643 105.79C132.328 105.654 131.946 105.585 131.536 105.64C131.126 105.695 130.785 105.845 130.525 106.049C130.197 106.309 130.033 106.636 130.101 106.991C130.156 107.346 130.416 107.632 130.812 107.809C131.126 107.946 131.522 108.014 131.932 107.96Z" fill="#231815"/>
<path d="M158.695 100.154C159.091 100.099 159.433 99.9629 159.747 99.8674C160.129 99.7446 160.485 99.6491 160.772 99.4717C161.099 99.267 161.291 98.9396 161.496 98.6667C161.714 98.3665 161.974 98.0936 162.069 97.7388C162.151 97.3977 162.083 97.0293 162.069 96.6472C162.069 96.2924 162.179 95.924 162.11 95.542C162.042 95.1599 161.878 94.8051 161.769 94.464C161.646 94.0956 161.482 93.7545 161.277 93.4543C161.072 93.1404 160.785 92.9085 160.485 92.6765C160.198 92.4718 159.884 92.3081 159.501 92.1853C159.173 92.0898 158.818 92.0761 158.408 92.0625C158.066 92.0625 157.711 92.0625 157.301 92.1171C156.933 92.158 156.577 92.2126 156.236 92.3081C155.867 92.4036 155.539 92.5264 155.211 92.6765C154.87 92.8266 154.528 92.9631 154.228 93.1541C153.913 93.3588 153.654 93.618 153.394 93.8636C153.121 94.1365 152.82 94.3549 152.643 94.6687C152.452 94.9962 152.356 95.3509 152.288 95.7057C152.219 96.0605 152.165 96.4289 152.233 96.7973C152.301 97.1657 152.547 97.4659 152.738 97.7934C152.93 98.1072 153.094 98.4347 153.38 98.694C153.654 98.9396 153.968 99.117 154.31 99.308C154.624 99.4854 154.965 99.6491 155.334 99.7719C155.676 99.8811 156.045 99.9357 156.427 100.004C156.796 100.058 157.151 100.099 157.547 100.099C157.916 100.099 158.299 100.181 158.681 100.14L158.695 100.154Z" fill="#231815"/>
<path d="M151.071 94.5871C151.481 94.5325 151.85 94.3961 152.11 94.1914C152.438 93.9321 152.574 93.5637 152.52 93.2089C152.465 92.8542 152.192 92.5676 151.795 92.3902C151.481 92.2538 151.085 92.2265 150.675 92.2674C150.265 92.322 149.924 92.4585 149.664 92.6768C149.336 92.936 149.131 93.2772 149.186 93.6319C149.241 93.9867 149.541 94.3005 149.937 94.4643C150.252 94.6007 150.662 94.6417 151.071 94.5871Z" fill="#231815"/>
<path d="M149.911 98.5455C150.321 98.4909 150.676 98.3272 150.935 98.1225C151.263 97.8632 151.427 97.5084 151.372 97.1537C151.318 96.7989 151.031 96.5124 150.635 96.3486C150.321 96.2122 149.924 96.1439 149.514 96.1985C149.105 96.2531 148.763 96.4168 148.504 96.6215C148.176 96.8808 148.039 97.2219 148.094 97.5767C148.148 97.9314 148.408 98.2043 148.804 98.3681C149.118 98.5045 149.514 98.6 149.924 98.5455H149.911Z" fill="#231815"/>
<path d="M152.193 102.118C152.603 102.063 152.958 101.9 153.218 101.695C153.546 101.436 153.696 101.081 153.641 100.726C153.587 100.371 153.3 100.112 152.904 99.9347C152.589 99.7983 152.207 99.7437 151.797 99.7983C151.387 99.8528 151.018 99.962 150.759 100.167C150.431 100.426 150.294 100.781 150.349 101.135C150.404 101.49 150.663 101.777 151.059 101.954C151.373 102.091 151.77 102.172 152.18 102.118H152.193Z" fill="#231815"/>
<path d="M179.065 105.952C179.461 105.897 179.789 105.761 180.117 105.665C180.5 105.543 180.841 105.447 181.128 105.283C181.456 105.079 181.702 104.819 181.907 104.533C182.125 104.233 182.207 103.905 182.289 103.55C182.371 103.209 182.562 102.882 182.562 102.5C182.562 102.145 182.399 101.804 182.33 101.435C182.262 101.053 182.276 100.671 182.166 100.33C182.043 99.9617 181.907 99.6069 181.715 99.3068C181.511 98.9929 181.237 98.7337 180.937 98.5017C180.65 98.297 180.295 98.1742 179.926 98.0651C179.598 97.9695 179.243 97.9559 178.833 97.9423C178.491 97.9286 178.136 97.9423 177.726 98.0105C177.357 98.0514 176.975 98.0105 176.633 98.106C176.264 98.2015 175.95 98.4062 175.636 98.5563C175.294 98.7064 174.939 98.8155 174.639 99.0066C174.324 99.2112 173.997 99.4023 173.737 99.6479C173.464 99.9208 173.273 100.248 173.095 100.548C172.904 100.876 172.767 101.217 172.699 101.572C172.63 101.927 172.63 102.295 172.699 102.663C172.767 103.032 172.863 103.4 173.054 103.728C173.245 104.042 173.518 104.301 173.805 104.56C174.079 104.806 174.406 104.956 174.748 105.133C175.062 105.311 175.39 105.474 175.759 105.597C176.1 105.706 176.442 105.884 176.825 105.952C177.193 106.006 177.562 106.102 177.945 106.116C178.314 106.116 178.696 106.02 179.079 105.966L179.065 105.952Z" fill="#231815"/>
<path d="M171.44 100.384C171.849 100.33 172.191 100.179 172.451 99.9748C172.778 99.7155 172.983 99.3881 172.929 99.0333C172.874 98.6785 172.574 98.392 172.177 98.2282C171.863 98.0918 171.467 98.0508 171.057 98.1054C170.647 98.16 170.306 98.3101 170.046 98.5148C169.718 98.774 169.541 99.1015 169.609 99.4563C169.664 99.811 169.937 100.125 170.319 100.289C170.634 100.425 171.043 100.439 171.453 100.384H171.44Z" fill="#231815"/>
<path d="M170.282 104.354C170.691 104.3 171.019 104.122 171.279 103.918C171.607 103.658 171.825 103.331 171.757 102.976C171.702 102.621 171.388 102.348 170.992 102.185C170.678 102.048 170.282 101.966 169.872 102.021C169.462 102.076 169.12 102.239 168.861 102.458C168.533 102.717 168.342 103.058 168.396 103.413C168.451 103.768 168.751 104.068 169.148 104.231C169.462 104.368 169.858 104.409 170.282 104.354Z" fill="#231815"/>
<path d="M172.577 107.984C172.987 107.93 173.355 107.766 173.615 107.561C173.943 107.302 174.107 106.934 174.052 106.579C173.997 106.224 173.711 105.924 173.314 105.747C173 105.61 172.604 105.597 172.18 105.637C171.771 105.692 171.402 105.801 171.142 106.02C170.814 106.279 170.65 106.634 170.719 107.002C170.773 107.357 171.06 107.643 171.456 107.807C171.771 107.943 172.167 108.039 172.577 107.984Z" fill="#231815"/>
<path d="M199.338 100.18C199.735 100.125 200.09 100.03 200.418 99.9343C200.8 99.8115 201.074 99.5386 201.347 99.3612C201.675 99.1566 201.948 98.9519 202.153 98.679C202.371 98.3788 202.631 98.1059 202.727 97.7375C202.809 97.3964 202.809 97.0143 202.809 96.6459C202.809 96.2911 202.672 95.95 202.617 95.5679C202.549 95.1859 202.549 94.8038 202.426 94.4763C202.303 94.1079 202.194 93.7259 202.003 93.4257C201.798 93.1118 201.511 92.8526 201.21 92.6206C200.923 92.4159 200.582 92.2249 200.199 92.1158C199.871 92.0203 199.502 91.952 199.093 91.9384C198.751 91.9247 198.382 92.0748 197.986 92.1158C197.617 92.1567 197.235 92.1294 196.893 92.2249C196.524 92.3204 196.183 92.4705 195.855 92.607C195.513 92.7571 195.213 92.9754 194.912 93.1664C194.598 93.3711 194.297 93.5894 194.051 93.8487C193.778 94.1216 193.614 94.4354 193.437 94.7492C193.245 95.0767 192.958 95.3496 192.89 95.7044C192.822 96.0592 192.945 96.4276 192.999 96.796C193.068 97.1644 193.109 97.5465 193.3 97.8739C193.491 98.1878 193.792 98.4334 194.079 98.6926C194.352 98.9383 194.598 99.2384 194.939 99.4158C195.254 99.5932 195.609 99.7297 195.978 99.8525C196.319 99.9616 196.715 99.9343 197.098 99.9889C197.467 100.043 197.822 100.057 198.205 100.071C198.573 100.071 198.956 100.235 199.338 100.194V100.18Z" fill="#231815"/>
<path d="M191.714 94.6002C192.124 94.5456 192.479 94.3818 192.739 94.1772C193.066 93.9179 193.258 93.5495 193.189 93.1947C193.135 92.84 192.82 92.5671 192.424 92.4033C192.11 92.2669 191.714 92.1986 191.304 92.2532C190.894 92.3078 190.553 92.4852 190.293 92.6899C189.965 92.9491 189.76 93.2766 189.829 93.6314C189.883 93.9861 190.184 94.2727 190.58 94.4501C190.894 94.5865 191.304 94.6684 191.714 94.6138V94.6002Z" fill="#231815"/>
<path d="M190.552 98.5033C190.962 98.4487 191.331 98.3395 191.591 98.1212C191.918 97.862 192.055 97.4935 191.987 97.1388C191.932 96.784 191.673 96.4838 191.276 96.3201C190.962 96.1836 190.552 96.1154 190.142 96.1563C189.733 96.2109 189.391 96.4019 189.131 96.6066C188.804 96.8659 188.626 97.1933 188.694 97.5618C188.749 97.9165 189.022 98.2304 189.418 98.3941C189.733 98.5306 190.142 98.5442 190.552 98.5033Z" fill="#231815"/>
<path d="M192.837 102.092C193.247 102.038 193.616 101.915 193.876 101.696C194.204 101.437 194.34 101.082 194.272 100.728C194.217 100.373 193.971 100.045 193.575 99.8816C193.261 99.7451 192.851 99.7451 192.441 99.7997C192.031 99.8543 191.663 99.9771 191.403 100.182C191.075 100.441 190.897 100.796 190.952 101.151C191.007 101.505 191.307 101.792 191.704 101.956C192.018 102.092 192.414 102.147 192.824 102.092H192.837Z" fill="#231815"/>
<path d="M219.709 105.949C220.105 105.894 220.46 105.826 220.774 105.73C221.157 105.608 221.43 105.362 221.717 105.185C222.045 104.98 222.441 104.871 222.646 104.598C222.865 104.298 222.947 103.916 223.042 103.561C223.124 103.22 223.138 102.851 223.124 102.483C223.124 102.128 223.083 101.773 223.029 101.405C222.96 101.023 222.906 100.654 222.796 100.313C222.673 99.9449 222.469 99.631 222.277 99.3308C222.072 99.017 221.881 98.6895 221.581 98.4576C221.294 98.2529 220.925 98.1847 220.542 98.0619C220.214 97.9663 219.873 97.748 219.477 97.7344C219.135 97.7344 218.766 97.9118 218.37 97.9527C218.001 97.9936 217.619 97.9527 217.277 98.0482C216.908 98.1437 216.553 98.2392 216.225 98.3893C215.884 98.5394 215.597 98.785 215.296 98.9897C214.982 99.1944 214.709 99.44 214.463 99.6856C214.19 99.9585 213.875 100.177 213.698 100.477C213.506 100.804 213.479 101.187 213.411 101.541C213.342 101.896 213.274 102.251 213.329 102.619C213.397 102.988 213.465 103.383 213.657 103.711C213.848 104.025 214.176 104.243 214.463 104.502C214.736 104.748 215.023 104.98 215.364 105.157C215.679 105.335 215.993 105.567 216.362 105.689C216.703 105.799 217.086 105.908 217.468 105.962C217.837 106.017 218.22 106.003 218.602 106.003C218.971 106.003 219.354 105.976 219.736 105.921L219.709 105.949Z" fill="#231815"/>
<path d="M212.084 100.433C212.494 100.379 212.822 100.188 213.081 99.9696C213.409 99.7103 213.559 99.3828 213.505 99.0281C213.45 98.6733 213.204 98.3595 212.808 98.1957C212.494 98.0593 212.084 98.0456 211.674 98.1002C211.264 98.1548 210.895 98.2639 210.636 98.4686C210.308 98.7279 210.185 99.0826 210.239 99.4511C210.294 99.8058 210.554 100.092 210.95 100.256C211.264 100.393 211.66 100.488 212.07 100.433H212.084Z" fill="#231815"/>
<path d="M210.925 104.338C211.335 104.284 211.677 104.147 211.936 103.943C212.264 103.684 212.428 103.356 212.36 103.001C212.305 102.647 212.046 102.346 211.649 102.169C211.335 102.032 210.925 101.964 210.515 102.019C210.106 102.073 209.778 102.264 209.518 102.469C209.19 102.728 209.013 103.056 209.081 103.411C209.136 103.765 209.409 104.066 209.791 104.229C210.106 104.366 210.502 104.393 210.912 104.338H210.925Z" fill="#231815"/>
<path d="M213.217 107.966C213.627 107.911 213.969 107.734 214.228 107.529C214.556 107.27 214.72 106.929 214.665 106.574C214.611 106.219 214.324 105.96 213.928 105.783C213.613 105.646 213.231 105.551 212.821 105.605C212.411 105.66 212.042 105.81 211.783 106.015C211.455 106.274 211.277 106.642 211.332 106.997C211.387 107.352 211.715 107.611 212.097 107.775C212.411 107.911 212.807 108.021 213.217 107.966Z" fill="#231815"/>
<path d="M239.969 100.052C240.365 99.9976 240.706 99.9021 241.02 99.8066C241.403 99.6838 241.717 99.5473 242.004 99.3699C242.332 99.1652 242.619 98.9606 242.824 98.6877C243.042 98.3875 243.288 98.1009 243.384 97.7325C243.466 97.3914 243.329 97.0093 243.329 96.6273C243.329 96.2725 243.357 95.9177 243.288 95.5493C243.22 95.1673 243.138 94.8125 243.015 94.4714C242.892 94.103 242.824 93.7209 242.619 93.4207C242.414 93.1069 242.1 92.8886 241.799 92.6566C241.512 92.4519 241.198 92.2745 240.816 92.1654C240.488 92.0699 240.132 92.0972 239.723 92.0699C239.381 92.0699 239.012 91.9607 238.602 92.0153C238.233 92.0562 237.851 92.0971 237.509 92.179C237.141 92.2745 236.785 92.3973 236.457 92.5338C236.116 92.6839 235.856 92.9977 235.569 93.1888C235.255 93.3934 234.982 93.6254 234.722 93.871C234.449 94.1439 234.203 94.3895 234.026 94.7033C233.834 95.0308 233.711 95.3583 233.643 95.7131C233.575 96.0678 233.466 96.4362 233.52 96.8047C233.588 97.1731 233.725 97.5415 233.916 97.869C234.108 98.1828 234.449 98.3738 234.736 98.6331C235.009 98.8787 235.269 99.1107 235.61 99.3017C235.925 99.4791 236.239 99.6974 236.608 99.8202C236.949 99.9294 237.318 100.079 237.701 100.134C238.07 100.189 238.452 100.066 238.835 100.066C239.203 100.066 239.572 100.093 239.955 100.039L239.969 100.052Z" fill="#231815"/>
<path d="M232.359 94.5652C232.769 94.5106 233.11 94.3469 233.37 94.1422C233.698 93.8829 233.903 93.5418 233.835 93.1871C233.78 92.8323 233.466 92.573 233.069 92.3956C232.755 92.2592 232.373 92.2046 231.963 92.2592C231.553 92.3138 231.198 92.4366 230.938 92.6549C230.61 92.9142 230.405 93.2553 230.474 93.61C230.528 93.9648 230.843 94.2241 231.239 94.4015C231.553 94.5379 231.936 94.6198 232.345 94.5652H232.359Z" fill="#231815"/>
<path d="M231.196 98.4948C231.606 98.4402 231.975 98.331 232.234 98.1264C232.562 97.8671 232.712 97.4987 232.644 97.1439C232.589 96.7892 232.302 96.5299 231.906 96.3525C231.592 96.2161 231.209 96.1479 230.8 96.2024C230.39 96.257 230.048 96.4071 229.789 96.6254C229.461 96.8847 229.242 97.2122 229.311 97.5669C229.365 97.9217 229.679 98.2219 230.062 98.3856C230.376 98.5221 230.772 98.5494 231.182 98.4948H231.196Z" fill="#231815"/>
<path d="M233.48 102.111C233.89 102.057 234.259 101.92 234.518 101.716C234.846 101.456 235.01 101.088 234.942 100.719C234.887 100.365 234.587 100.092 234.19 99.928C233.876 99.7916 233.48 99.6824 233.07 99.737C232.66 99.7916 232.305 99.969 232.045 100.174C231.718 100.433 231.54 100.788 231.595 101.142C231.649 101.497 231.95 101.784 232.346 101.961C232.66 102.098 233.056 102.166 233.466 102.111H233.48Z" fill="#231815"/>
<path d="M260.353 105.912C260.749 105.858 261.132 105.912 261.446 105.803C261.828 105.68 262.101 105.394 262.375 105.216C262.703 105.012 262.949 104.78 263.153 104.507C263.372 104.207 263.659 103.947 263.741 103.593C263.823 103.252 263.755 102.869 263.755 102.487C263.755 102.133 263.673 101.791 263.604 101.409C263.536 101.027 263.495 100.659 263.386 100.331C263.263 99.9631 263.167 99.5946 262.976 99.2945C262.771 98.9806 262.525 98.6668 262.224 98.4485C261.938 98.2438 261.582 98.0937 261.2 97.9709C260.872 97.8754 260.503 97.889 260.093 97.8754C259.752 97.8754 259.369 97.7526 258.973 97.7935C258.604 97.8344 258.249 97.9845 257.907 98.0801C257.538 98.1756 257.183 98.2711 256.855 98.4075C256.514 98.5576 256.2 98.7623 255.899 98.9533C255.585 99.158 255.366 99.4718 255.107 99.7175C254.833 99.9904 254.492 100.181 254.314 100.482C254.123 100.809 254.068 101.191 254 101.532C253.932 101.887 253.986 102.228 254.041 102.597C254.109 102.965 254.205 103.306 254.396 103.634C254.588 103.947 254.833 104.193 255.12 104.466C255.394 104.712 255.585 105.066 255.926 105.257C256.241 105.435 256.623 105.544 256.992 105.667C257.334 105.776 257.716 105.83 258.099 105.885C258.467 105.94 258.836 105.912 259.219 105.912C259.588 105.912 259.957 105.926 260.339 105.885L260.353 105.912Z" fill="#231815"/>
<path d="M252.729 100.44C253.139 100.385 253.48 100.194 253.74 99.9894C254.068 99.7301 254.232 99.389 254.177 99.0342C254.122 98.6795 253.849 98.3656 253.467 98.2019C253.153 98.0655 252.743 98.0655 252.333 98.12C251.923 98.1746 251.568 98.2974 251.308 98.5021C250.98 98.7613 250.803 99.1025 250.857 99.4572C250.912 99.812 251.213 100.071 251.609 100.249C251.923 100.385 252.319 100.494 252.729 100.44Z" fill="#231815"/>
<path d="M251.579 104.356C251.988 104.302 252.316 104.138 252.576 103.933C252.904 103.674 253.068 103.36 253.013 102.992C252.958 102.637 252.685 102.364 252.303 102.2C251.988 102.064 251.606 102.009 251.196 102.064C250.786 102.118 250.404 102.228 250.144 102.432C249.816 102.692 249.639 103.074 249.693 103.428C249.748 103.783 250.062 104.056 250.458 104.233C250.773 104.37 251.169 104.424 251.579 104.37V104.356Z" fill="#231815"/>
<path d="M253.863 107.986C254.273 107.931 254.614 107.74 254.874 107.522C255.202 107.262 255.393 106.921 255.338 106.566C255.284 106.212 254.983 105.911 254.587 105.748C254.273 105.611 253.877 105.57 253.467 105.625C253.057 105.68 252.688 105.802 252.428 106.007C252.101 106.266 251.964 106.635 252.019 106.989C252.073 107.344 252.346 107.631 252.743 107.795C253.057 107.931 253.453 108.026 253.863 107.972V107.986Z" fill="#231815"/>
<path d="M280.625 100.154C281.021 100.099 281.39 100.045 281.704 99.9493C282.087 99.8265 282.401 99.6218 282.674 99.4444C283.002 99.2397 283.193 98.9259 283.398 98.653C283.617 98.3528 283.794 98.0799 283.876 97.7115C283.958 97.3704 284.15 97.0293 284.136 96.6472C284.136 96.2924 284.081 95.924 284.013 95.5556C283.945 95.1735 283.781 94.8324 283.658 94.4913C283.535 94.1229 283.467 93.7408 283.275 93.427C283.07 93.1131 282.702 92.9494 282.401 92.7311C282.114 92.5264 281.855 92.2535 281.472 92.1307C281.144 92.0352 280.775 91.9806 280.365 91.967C280.024 91.9533 279.655 92.0079 279.245 92.0625C278.876 92.1034 278.494 92.1034 278.152 92.1989C277.783 92.2944 277.469 92.5264 277.155 92.6629C276.813 92.813 276.485 92.9767 276.185 93.1677C275.871 93.3724 275.584 93.6044 275.338 93.85C275.065 94.1229 274.901 94.4367 274.723 94.7369C274.532 95.0644 274.395 95.3646 274.327 95.7193C274.259 96.0741 274.231 96.4152 274.3 96.7836C274.368 97.1521 274.477 97.4932 274.668 97.8207C274.86 98.1345 274.996 98.5166 275.283 98.7758C275.556 99.0214 275.884 99.2397 276.212 99.4308C276.526 99.6082 276.923 99.6627 277.291 99.7719C277.633 99.8811 277.988 100.072 278.371 100.127C278.74 100.181 279.122 100.127 279.505 100.127C279.874 100.127 280.256 100.181 280.639 100.127L280.625 100.154Z" fill="#231815"/>
<path d="M273.002 94.5716C273.412 94.517 273.781 94.3805 274.041 94.1759C274.368 93.9166 274.546 93.5482 274.478 93.1934C274.423 92.8387 274.122 92.5658 273.726 92.3884C273.412 92.2519 273.03 92.211 272.606 92.2656C272.196 92.3202 271.827 92.4157 271.568 92.6203C271.24 92.8796 271.103 93.248 271.158 93.6028C271.213 93.9576 271.486 94.2577 271.868 94.4215C272.183 94.5579 272.579 94.5989 272.989 94.5443L273.002 94.5716Z" fill="#231815"/>
<path d="M271.855 98.5432C272.265 98.4887 272.634 98.3386 272.894 98.1202C273.222 97.861 273.372 97.4926 273.317 97.1378C273.262 96.783 272.976 96.4828 272.593 96.3191C272.279 96.1827 271.883 96.1554 271.473 96.21C271.063 96.2645 270.708 96.3873 270.448 96.592C270.12 96.8513 269.984 97.1924 270.038 97.5472C270.093 97.9019 270.366 98.1612 270.762 98.3386C271.077 98.475 271.459 98.5842 271.883 98.5432H271.855Z" fill="#231815"/>
<path d="M274.124 102.093C274.533 102.038 274.902 101.915 275.162 101.71C275.49 101.451 275.654 101.083 275.599 100.728C275.544 100.373 275.244 100.087 274.848 99.923C274.533 99.7865 274.137 99.732 273.727 99.7865C273.318 99.8411 272.962 99.9776 272.703 100.182C272.375 100.441 272.197 100.796 272.252 101.151C272.307 101.506 272.621 101.765 273.003 101.929C273.318 102.065 273.7 102.147 274.11 102.093H274.124Z" fill="#231815"/>
<path d="M300.994 105.912C301.39 105.857 301.731 105.748 302.046 105.653C302.428 105.53 302.811 105.503 303.084 105.325C303.412 105.121 303.617 104.793 303.822 104.52C304.04 104.22 304.191 103.92 304.273 103.551C304.355 103.21 304.477 102.856 304.464 102.487C304.464 102.132 304.314 101.791 304.245 101.423C304.177 101.041 304.109 100.686 303.986 100.345C303.863 99.9765 303.753 99.6354 303.548 99.3352C303.344 99.0213 303.166 98.6666 302.865 98.4482C302.578 98.2436 302.21 98.0935 301.841 97.9843C301.513 97.8888 301.144 97.8752 300.734 97.8615C300.393 97.8479 300.024 97.9024 299.628 97.9434C299.259 97.9843 298.89 98.0389 298.548 98.1344C298.179 98.2299 297.824 98.3118 297.496 98.4482C297.155 98.5983 296.895 98.8849 296.595 99.0896C296.28 99.2942 295.884 99.3897 295.625 99.6354C295.351 99.9083 295.133 100.222 294.955 100.522C294.764 100.85 294.696 101.218 294.614 101.573C294.545 101.928 294.491 102.296 294.559 102.665C294.627 103.033 294.846 103.347 295.037 103.674C295.228 103.988 295.392 104.316 295.679 104.575C295.953 104.82 296.294 104.957 296.636 105.134C296.95 105.312 297.278 105.462 297.647 105.571C297.988 105.68 298.343 105.83 298.712 105.898C299.081 105.953 299.45 106.035 299.832 106.035C300.201 106.035 300.57 105.967 300.953 105.912H300.994Z" fill="#231815"/>
<path d="M293.371 100.444C293.781 100.389 294.15 100.239 294.409 100.034C294.737 99.7752 294.887 99.4068 294.833 99.0521C294.778 98.6973 294.505 98.3835 294.109 98.2197C293.794 98.0833 293.385 98.015 292.975 98.0696C292.565 98.1242 292.21 98.3016 291.95 98.5063C291.622 98.7655 291.431 99.1203 291.486 99.4751C291.54 99.8298 291.841 100.13 292.237 100.307C292.551 100.444 292.961 100.498 293.371 100.444Z" fill="#231815"/>
<path d="M292.208 104.329C292.618 104.275 292.973 104.152 293.233 103.947C293.561 103.688 293.725 103.333 293.657 102.979C293.602 102.624 293.329 102.324 292.946 102.146C292.632 102.01 292.222 101.969 291.812 102.023C291.402 102.078 291.061 102.242 290.801 102.446C290.473 102.706 290.296 103.033 290.364 103.388C290.419 103.743 290.692 104.016 291.088 104.179C291.402 104.316 291.785 104.357 292.195 104.316L292.208 104.329Z" fill="#231815"/>
<path d="M294.504 107.921C294.914 107.866 295.283 107.757 295.543 107.552C295.871 107.293 296.021 106.925 295.953 106.57C295.898 106.215 295.625 105.901 295.242 105.738C294.928 105.601 294.518 105.547 294.108 105.588C293.698 105.642 293.357 105.819 293.097 106.038C292.769 106.297 292.578 106.652 292.633 107.007C292.687 107.361 293.002 107.621 293.398 107.798C293.712 107.934 294.095 107.989 294.504 107.934V107.921Z" fill="#231815"/>
<path d="M321.269 100.156C321.665 100.101 322.007 99.9782 322.334 99.8827C322.717 99.7599 323.072 99.6644 323.359 99.487C323.687 99.2824 323.892 98.9549 324.097 98.682C324.315 98.3818 324.534 98.0952 324.63 97.7405C324.712 97.3993 324.63 97.0309 324.63 96.6489C324.63 96.2941 324.712 95.9257 324.657 95.5573C324.589 95.1752 324.466 94.8204 324.356 94.4793C324.233 94.1109 323.988 93.8244 323.796 93.5242C323.591 93.2103 323.455 92.8283 323.154 92.61C322.867 92.4053 322.498 92.3098 322.116 92.2006C321.788 92.1051 321.433 91.9277 321.037 91.9141C320.695 91.9141 320.313 91.9277 319.903 91.9823C319.534 92.0232 319.179 92.187 318.837 92.2825C318.468 92.378 318.099 92.4326 317.771 92.5827C317.43 92.7328 317.17 93.0193 316.87 93.224C316.556 93.4287 316.282 93.6606 316.036 93.9062C315.763 94.1791 315.49 94.4111 315.312 94.7249C315.121 95.0524 314.998 95.3935 314.93 95.7347C314.862 96.0894 314.78 96.4578 314.834 96.8263C314.903 97.1947 315.107 97.5221 315.299 97.8496C315.49 98.1635 315.75 98.4091 316.036 98.6683C316.31 98.9139 316.583 99.1459 316.924 99.3369C317.239 99.5143 317.58 99.6644 317.949 99.7736C318.291 99.8827 318.646 100.074 319.015 100.128C319.384 100.183 319.766 100.21 320.149 100.224C320.517 100.224 320.9 100.21 321.283 100.156H321.269Z" fill="#231815"/>
<path d="M313.644 94.5904C314.054 94.5358 314.423 94.3994 314.683 94.1811C315.011 93.9218 315.161 93.5534 315.106 93.1986C315.052 92.8439 314.765 92.571 314.368 92.4072C314.054 92.2708 313.658 92.2025 313.248 92.2571C312.838 92.3117 312.497 92.4618 312.237 92.6801C311.909 92.9394 311.759 93.2805 311.814 93.6353C311.868 93.99 312.142 94.2629 312.538 94.4403C312.852 94.5768 313.248 94.6586 313.658 94.6041L313.644 94.5904Z" fill="#231815"/>
<path d="M312.485 98.4906C312.895 98.436 313.237 98.2996 313.496 98.0949C313.824 97.8356 314.015 97.4945 313.947 97.1397C313.893 96.785 313.606 96.4711 313.223 96.3074C312.909 96.1709 312.499 96.1436 312.089 96.1982C311.679 96.2528 311.338 96.4029 311.078 96.6212C310.75 96.8805 310.559 97.208 310.627 97.5764C310.682 97.9311 310.969 98.2313 311.365 98.3951C311.679 98.5315 312.076 98.5452 312.485 98.4906Z" fill="#231815"/>
<path d="M314.764 102.093C315.174 102.038 315.543 101.929 315.802 101.724C316.13 101.465 316.253 101.097 316.185 100.742C316.13 100.387 315.871 100.114 315.474 99.9504C315.16 99.8139 314.764 99.732 314.354 99.7866C313.944 99.8412 313.603 100.019 313.343 100.223C313.015 100.483 312.851 100.81 312.906 101.165C312.961 101.52 313.22 101.82 313.616 101.983C313.931 102.12 314.327 102.147 314.737 102.106L314.764 102.093Z" fill="#231815"/>
<path d="M341.637 105.943C342.033 105.888 342.389 105.82 342.703 105.724C343.085 105.602 343.413 105.452 343.687 105.274C344.014 105.069 344.301 104.851 344.506 104.565C344.725 104.264 344.779 103.91 344.875 103.555C344.957 103.214 344.984 102.873 344.984 102.491C344.984 102.136 344.943 101.795 344.875 101.426C344.807 101.044 344.875 100.648 344.766 100.307C344.643 99.939 344.383 99.6524 344.192 99.3522C343.987 99.0384 343.823 98.67 343.523 98.4517C343.236 98.247 342.826 98.2333 342.457 98.1242C342.129 98.0287 341.788 97.9604 341.391 97.9331C341.05 97.9331 340.681 97.824 340.271 97.8786C339.902 97.9195 339.561 98.0832 339.219 98.1787C338.85 98.2743 338.509 98.3834 338.181 98.5199C337.839 98.67 337.484 98.7928 337.184 98.9838C336.869 99.1885 336.637 99.4887 336.391 99.7343C336.118 100.007 335.886 100.266 335.708 100.567C335.517 100.894 335.298 101.194 335.23 101.549C335.162 101.904 335.107 102.286 335.175 102.654C335.244 103.023 335.462 103.35 335.653 103.678C335.845 103.992 336.091 104.251 336.377 104.51C336.651 104.756 336.91 105.029 337.252 105.22C337.566 105.397 337.921 105.547 338.29 105.67C338.632 105.779 339.001 105.888 339.383 105.943C339.752 105.997 340.134 106.052 340.517 106.066C340.886 106.066 341.268 105.97 341.637 105.915V105.943Z" fill="#231815"/>
<path d="M334.015 100.403C334.425 100.349 334.78 100.212 335.039 99.9938C335.367 99.7345 335.545 99.3934 335.49 99.0387C335.436 98.6839 335.135 98.411 334.739 98.2472C334.425 98.1108 334.028 98.0289 333.619 98.0835C333.209 98.1381 332.854 98.2882 332.594 98.5065C332.266 98.7658 332.129 99.1205 332.198 99.4753C332.252 99.8301 332.498 100.144 332.894 100.308C333.209 100.444 333.619 100.471 334.028 100.417L334.015 100.403Z" fill="#231815"/>
<path d="M332.868 104.401C333.278 104.346 333.633 104.183 333.892 103.964C334.22 103.705 334.384 103.35 334.329 102.982C334.275 102.627 333.988 102.34 333.592 102.177C333.278 102.04 332.881 101.972 332.471 102.027C332.062 102.081 331.706 102.245 331.447 102.45C331.119 102.709 330.982 103.05 331.037 103.405C331.092 103.76 331.351 104.032 331.747 104.21C332.062 104.346 332.458 104.455 332.868 104.401Z" fill="#231815"/>
<path d="M335.15 107.934C335.559 107.879 335.928 107.757 336.188 107.552C336.516 107.293 336.693 106.924 336.639 106.569C336.584 106.215 336.283 105.928 335.887 105.764C335.573 105.628 335.177 105.601 334.767 105.655C334.357 105.71 333.975 105.805 333.715 106.01C333.387 106.269 333.251 106.638 333.305 106.992C333.36 107.347 333.647 107.606 334.043 107.784C334.357 107.92 334.74 107.989 335.15 107.948V107.934Z" fill="#231815"/>
<path d="M361.898 100.019C362.295 99.9648 362.636 99.9102 362.95 99.8147C363.333 99.6919 363.729 99.6919 364.016 99.5145C364.344 99.3098 364.508 98.9414 364.713 98.6685C364.931 98.3683 365.068 98.0681 365.15 97.7133C365.232 97.3722 365.423 97.0311 365.409 96.649C365.409 96.2943 365.287 95.9395 365.218 95.5711C365.15 95.189 365.013 94.8479 364.89 94.5068C364.767 94.1384 364.658 93.7972 364.467 93.497C364.262 93.1832 364.071 92.8421 363.77 92.6238C363.483 92.4191 363.142 92.2417 362.759 92.1189C362.431 92.0234 362.049 92.0097 361.652 91.9961C361.311 91.9961 360.956 92.0916 360.546 92.1462C360.177 92.1871 359.781 92.1053 359.439 92.2008C359.07 92.2963 358.756 92.5146 358.428 92.6511C358.087 92.8012 357.8 93.0195 357.499 93.2241C357.185 93.4288 356.775 93.5243 356.529 93.7699C356.256 94.0428 356.065 94.3703 355.887 94.6842C355.696 95.0116 355.6 95.3664 355.518 95.7212C355.45 96.0759 355.45 96.4444 355.518 96.8128C355.587 97.1812 355.669 97.5496 355.874 97.8771C356.065 98.1909 356.338 98.4502 356.625 98.7094C356.898 98.955 357.226 99.1051 357.568 99.2962C357.882 99.4735 358.21 99.6509 358.579 99.7737C358.92 99.8829 359.289 99.9648 359.672 100.019C360.04 100.074 360.396 100.129 360.792 100.142C361.161 100.142 361.53 100.074 361.912 100.033L361.898 100.019Z" fill="#231815"/>
<path d="M354.288 94.6042C354.698 94.5496 355.053 94.3722 355.313 94.1675C355.641 93.9083 355.832 93.5535 355.764 93.1987C355.709 92.844 355.408 92.5438 355.026 92.38C354.712 92.2436 354.302 92.189 353.892 92.2436C353.482 92.2982 353.127 92.4483 352.867 92.6529C352.539 92.9122 352.375 93.2669 352.43 93.6217C352.485 93.9765 352.772 94.2494 353.168 94.4268C353.482 94.5632 353.878 94.6587 354.288 94.6042Z" fill="#231815"/>
<path d="M353.126 98.5058C353.536 98.4513 353.877 98.3012 354.137 98.0965C354.465 97.8372 354.656 97.5098 354.588 97.1413C354.533 96.7866 354.246 96.4727 353.864 96.309C353.549 96.1726 353.14 96.1589 352.73 96.2135C352.32 96.2681 351.978 96.4045 351.719 96.6228C351.391 96.8821 351.227 97.2096 351.295 97.5643C351.35 97.9191 351.623 98.2056 352.006 98.3694C352.32 98.5058 352.716 98.5604 353.126 98.5058Z" fill="#231815"/>
<path d="M355.422 102.12C355.831 102.065 356.173 101.888 356.432 101.683C356.76 101.424 356.952 101.083 356.897 100.728C356.842 100.373 356.542 100.087 356.146 99.9228C355.831 99.7864 355.435 99.7182 355.025 99.7727C354.615 99.8273 354.288 100.018 354.028 100.223C353.7 100.482 353.509 100.81 353.577 101.165C353.632 101.519 353.932 101.779 354.329 101.956C354.643 102.092 355.025 102.188 355.449 102.133L355.422 102.12Z" fill="#231815"/>
<path d="M382.27 105.859C382.666 105.805 383.062 105.914 383.376 105.818C383.759 105.696 384.073 105.477 384.36 105.3C384.688 105.095 384.947 104.836 385.152 104.549C385.371 104.249 385.48 103.908 385.576 103.553C385.658 103.212 385.74 102.857 385.726 102.475C385.726 102.121 385.767 101.752 385.699 101.384C385.63 101.002 385.521 100.633 385.412 100.292C385.289 99.9237 385.111 99.5826 384.906 99.2824C384.701 98.9686 384.387 98.7639 384.087 98.5319C383.8 98.3273 383.527 98.0544 383.144 97.9316C382.816 97.836 382.434 97.836 382.037 97.8224C381.696 97.8088 381.313 97.7815 380.917 97.8224C380.548 97.8633 380.207 98.068 379.865 98.1635C379.496 98.259 379.127 98.3 378.8 98.4364C378.458 98.5865 378.185 98.8458 377.884 99.0368C377.57 99.2415 377.283 99.4598 377.037 99.7054C376.764 99.9783 376.532 100.238 376.354 100.538C376.163 100.865 375.972 101.165 375.89 101.52C375.821 101.875 375.753 102.257 375.821 102.625C375.89 102.994 376.163 103.294 376.354 103.622C376.545 103.935 376.75 104.222 377.037 104.495C377.31 104.74 377.611 104.931 377.953 105.122C378.267 105.3 378.595 105.477 378.964 105.6C379.305 105.709 379.66 105.928 380.043 105.982C380.412 106.037 380.794 105.982 381.177 105.982C381.546 105.982 381.914 105.873 382.297 105.832L382.27 105.859Z" fill="#231815"/>
<path d="M374.66 100.428C375.07 100.374 375.439 100.224 375.698 100.019C376.026 99.7598 376.176 99.3914 376.122 99.0366C376.067 98.6819 375.78 98.3953 375.384 98.2316C375.07 98.0951 374.674 98.0406 374.264 98.0951C373.854 98.1497 373.499 98.2998 373.239 98.5045C372.911 98.7637 372.734 99.1049 372.788 99.4733C372.843 99.828 373.13 100.128 373.526 100.306C373.84 100.442 374.25 100.497 374.66 100.442V100.428Z" fill="#231815"/>
<path d="M373.511 104.384C373.921 104.329 374.276 104.165 374.535 103.961C374.863 103.701 375 103.347 374.945 102.992C374.891 102.637 374.617 102.378 374.221 102.2C373.907 102.064 373.524 101.982 373.115 102.037C372.705 102.091 372.322 102.214 372.063 102.419C371.735 102.678 371.557 103.06 371.626 103.415C371.68 103.77 371.981 104.07 372.377 104.233C372.691 104.37 373.101 104.438 373.511 104.384Z" fill="#231815"/>
<path d="M375.793 107.945C376.203 107.89 376.544 107.726 376.804 107.522C377.132 107.262 377.282 106.935 377.227 106.58C377.173 106.225 376.913 105.925 376.531 105.761C376.216 105.625 375.806 105.557 375.397 105.598C374.987 105.652 374.618 105.802 374.358 106.007C374.03 106.266 373.866 106.635 373.921 106.99C373.976 107.344 374.276 107.604 374.673 107.781C374.987 107.917 375.369 107.999 375.793 107.945Z" fill="#231815"/>
<path d="M402.557 100.127C402.954 100.073 403.268 99.8818 403.596 99.7863C403.978 99.6635 404.347 99.6362 404.62 99.4588C404.948 99.2541 405.221 99.0085 405.426 98.7356C405.645 98.4354 405.741 98.0943 405.836 97.7395C405.918 97.3984 405.959 97.0436 405.959 96.6752C405.959 96.3204 406.041 95.952 405.973 95.57C405.905 95.1879 405.836 94.8059 405.713 94.4647C405.59 94.0963 405.317 93.8098 405.126 93.4959C404.921 93.1821 404.648 92.9501 404.347 92.7318C404.06 92.5271 403.746 92.3907 403.363 92.2815C403.036 92.186 402.708 92.0223 402.298 92.0086C401.956 92.0086 401.574 91.9541 401.178 92.0086C400.809 92.0496 400.426 92.1178 400.085 92.2133C399.716 92.3088 399.388 92.4862 399.06 92.6227C398.718 92.7727 398.445 93.0457 398.158 93.2367C397.844 93.4414 397.462 93.5642 397.216 93.8098C396.942 94.0827 396.71 94.3829 396.533 94.683C396.341 95.0105 396.3 95.3926 396.232 95.7337C396.164 96.0885 396.205 96.4296 396.259 96.798C396.328 97.1664 396.382 97.5212 396.574 97.8487C396.765 98.1625 396.915 98.5309 397.202 98.7902C397.475 99.0358 397.803 99.2541 398.145 99.4451C398.459 99.6225 398.828 99.7453 399.197 99.8681C399.538 99.9773 399.921 100.046 400.303 100.1C400.672 100.155 401.041 100.209 401.423 100.223C401.792 100.223 402.175 100.182 402.557 100.127Z" fill="#231815"/>
<path d="M394.933 94.5892C395.342 94.5346 395.67 94.3436 395.93 94.1389C396.258 93.8797 396.449 93.5522 396.381 93.1974C396.326 92.8427 396.026 92.5834 395.643 92.406C395.329 92.2696 394.946 92.2013 394.536 92.2423C394.127 92.2968 393.771 92.4333 393.512 92.638C393.184 92.8972 393.034 93.252 393.102 93.6068C393.157 93.9615 393.416 94.289 393.812 94.4528C394.127 94.5892 394.536 94.6301 394.946 94.5756L394.933 94.5892Z" fill="#231815"/>
<path d="M393.774 98.5164C394.184 98.4618 394.526 98.2981 394.785 98.0934C395.113 97.8342 395.305 97.5067 395.236 97.1383C395.182 96.7835 394.895 96.4969 394.498 96.3196C394.184 96.1831 393.788 96.1422 393.378 96.1831C392.968 96.2377 392.613 96.3878 392.354 96.5925C392.026 96.8517 391.862 97.1928 391.93 97.5476C391.985 97.9024 392.244 98.2026 392.64 98.3663C392.955 98.5028 393.351 98.5437 393.761 98.4891L393.774 98.5164Z" fill="#231815"/>
<path d="M396.069 102.091C396.479 102.037 396.834 101.9 397.094 101.695C397.421 101.436 397.572 101.095 397.503 100.74C397.449 100.385 397.203 100.072 396.807 99.9079C396.492 99.7715 396.083 99.7305 395.673 99.7851C395.263 99.8397 394.908 99.9898 394.648 100.208C394.32 100.467 394.184 100.808 394.252 101.163C394.307 101.518 394.539 101.846 394.935 102.009C395.249 102.146 395.659 102.159 396.069 102.105V102.091Z" fill="#231815"/>
</g>
<defs>
<clipPath id="clip0_627_8240">
<rect width="406" height="108" fill="white" transform="matrix(-1 0 0 1 406 0)"/>
</clipPath>
</defs>
</svg>
