<svg preserveAspectRatio="none" overflow="visible" style="display: block;" width="31" height="32.1969" viewBox="0 0 31 32.1969" fill="none" xmlns="http://www.w3.org/2000/svg">
<path id="Vector" d="M18.7406 20.425C18.7406 21.5318 18.1134 22.4998 17.1773 23.0375V27.1153H13.8227V23.0375C12.8866 22.4998 12.2593 21.5318 12.2593 20.425C12.2593 18.7401 13.7134 17.3689 15.5 17.3689C17.2866 17.3689 18.7406 18.7401 18.7406 20.425ZM31 14.9356V29.5486C31 31.0094 29.7408 32.1969 28.1918 32.1969H2.80825C1.2592 32.1969 0 31.0094 0 29.5486V14.9356C0 13.4748 1.2592 12.2873 2.80825 12.2873H7.41263V7.62688C7.41263 3.4191 11.0382 0 15.5 0C19.9618 0 23.5874 3.4191 23.5874 7.62688V9.32075C23.5874 9.78679 23.1835 10.1677 22.6893 10.1677C22.1951 10.1677 21.7912 9.78679 21.7912 9.32075V7.62688C21.7912 4.35566 18.9687 1.69835 15.5 1.69835C12.0313 1.69835 9.21352 4.36014 9.21352 7.62688V12.2873H28.1918C29.7408 12.2873 31 13.4748 31 14.9356ZM29.1991 14.9356C29.1991 14.4113 28.7477 13.9811 28.187 13.9811H2.80825C2.24755 13.9811 1.79614 14.4068 1.79614 14.9356V29.5486C1.79614 30.0729 2.24755 30.5031 2.80825 30.5031H28.187C28.7477 30.5031 29.1991 30.0729 29.1991 29.5486V14.9356Z" fill="#2986B2"/>
</svg>
